<svg xmlns="http://www.w3.org/2000/svg" viewBox="0 0 42 42"><defs><style>.cls-1{fill:#00d185;}.cls-2{fill:#fff;}</style></defs><title>logo</title><g id="Слой_2" data-name="Слой 2"><g id="_1280" data-name="1280"><g id="news_card" data-name="news card"><path class="cls-1" d="M42,21A21,21,0,1,1,21,0,21,21,0,0,1,42,21Z"/><path class="cls-2" d="M14.46,20.88c.74,2.59-2.13,7.28,5.76,8.76C21.18,23,16.41,23.2,14.46,20.88Z"/><path class="cls-2" d="M14.88,17.77c0,2,.58,4.11,5.27,4.94.62-4.62-1.65-5.66-3.6-6.8a2.88,2.88,0,0,1-1.3-2C15.15,12.44,15,5.5,15,5.5s-.17,7.86-.17,9.17.07,3.1.07,3.1Z"/><path class="cls-2" d="M17.87,12.48a2.35,2.35,0,0,1-.37-1.19c-.1-1.45-.27-8.39-.27-8.39s-.18,7.86-.18,9.17a10.35,10.35,0,0,0,.34,2.59A6.29,6.29,0,0,1,17.87,12.48Z"/><path class="cls-2" d="M27.54,20.88c-2,2.32-6.72,2.16-5.76,8.76C29.67,28.16,26.8,23.47,27.54,20.88Z"/><path class="cls-2" d="M21.85,22.71c4.69-.83,5.28-2.91,5.27-4.94h0s.07-1.82.07-3.1S27,5.5,27,5.5s-.17,6.94-.27,8.39a2.88,2.88,0,0,1-1.3,2C23.5,17.05,21.23,18.09,21.85,22.71Z"/><path class="cls-2" d="M25,12.07c0-1.31-.18-9.17-.18-9.17s-.17,6.94-.27,8.39a2.35,2.35,0,0,1-.37,1.19,6.29,6.29,0,0,1,.48,2.18A10.35,10.35,0,0,0,25,12.07Z"/><path class="cls-2" d="M21.88,11h0l-.09-.11a3.43,3.43,0,0,1-.56-1.75C21.12,7.69,21,0,21,0s-.18,7.86-.18,9.17a2.75,2.75,0,0,1-.31,1.32c-.14.17-.27.35-.39.52h0c-2,2.69-2.52,4.82.88,6.9C24.14,16,23.86,13.65,21.88,11Z"/><path class="cls-2" d="M14.35,27.65c.78,2.74-2.25,7.69,6.09,9.26C21.78,29.64,16.42,30.1,14.35,27.65Z"/><path class="cls-2" d="M27.65,27.65c-2.07,2.45-7.43,2-6.09,9.26C29.9,35.34,26.87,30.39,27.65,27.65Z"/></g></g></g></svg>