<svg xmlns="http://www.w3.org/2000/svg" viewBox="0 0 28.88 28.88"><defs><style>.cls-1{fill:none;stroke:#1d1d1b;stroke-miterlimit:10;stroke-width:0.88px;}.cls-2{fill:#1d1d1b;}</style></defs><title>Ресурс 9</title><g id="Слой_2" data-name="Слой 2"><g id="_1280" data-name="1280"><g id="product_card_2" data-name="product card 2"><g id="_Группа_" data-name="&lt;Группа&gt;"><circle id="_Контур_" data-name="&lt;Контур&gt;" class="cls-1" cx="14.44" cy="14.44" r="14"/><g id="_Группа_2" data-name="&lt;Группа&gt;"><path id="_Составной_контур_" data-name="&lt;Составной контур&gt;" class="cls-2" d="M10.23,11.84a10.16,10.16,0,0,0,1.48,2.6,1.29,1.29,0,0,0,.3.27c.16.11.32.08.38-.11a3,3,0,0,0,.14-.79c0-.54,0-.89,0-1.42a.69.69,0,0,0-.64-.73c-.16,0-.17-.16-.07-.28a1,1,0,0,1,.81-.33c.5,0,1,0,1.52,0a2.56,2.56,0,0,1,.62.07.54.54,0,0,1,.45.5,1.39,1.39,0,0,1,0,.41c0,.58,0,1.16,0,1.74a2.65,2.65,0,0,0,.06.69c.07.31.28.39.49.16a6.78,6.78,0,0,0,.75-.93,9.07,9.07,0,0,0,1-1.91c.14-.34.24-.42.62-.42h2.09a1.18,1.18,0,0,1,.37.05.32.32,0,0,1,.22.41,3.4,3.4,0,0,1-.62,1.23c-.42.6-.87,1.19-1.31,1.79a1.4,1.4,0,0,0-.15.24.49.49,0,0,0,.09.7c.38.4.78.76,1.15,1.16a8.27,8.27,0,0,1,.73.95.54.54,0,0,1-.4.89c-.32,0-1.85,0-1.93,0a1.49,1.49,0,0,1-1.07-.42c-.33-.32-.62-.66-.93-1-.1-.09-.2-.19-.3-.27-.26-.2-.51-.15-.63.15a5.31,5.31,0,0,0-.19,1,.53.53,0,0,1-.55.51,5.21,5.21,0,0,1-2.8-.53A5.8,5.8,0,0,1,10,16.6a19.83,19.83,0,0,1-2.06-3.38c0-.06-.63-1.34-.65-1.4a.36.36,0,0,1,.17-.46c.11,0,2.08,0,2.11,0a.7.7,0,0,1,.67.48Z"/></g></g></g></g></g></svg>