<svg xmlns="http://www.w3.org/2000/svg" viewBox="0 0 28.88 28.88"><defs><style>.cls-1{fill:#1d1d1b;}.cls-2{fill:none;stroke:#1d1d1b;stroke-miterlimit:10;stroke-width:0.88px;}</style></defs><title>Ресурс 12</title><g id="Слой_2" data-name="Слой 2"><g id="_1280" data-name="1280"><g id="product_card_2" data-name="product card 2"><g id="_Группа_" data-name="&lt;Группа&gt;"><g id="_Группа_2" data-name="&lt;Группа&gt;"><path id="_Составной_контур_" data-name="&lt;Составной контур&gt;" class="cls-1" d="M14.44,14.36a3.24,3.24,0,1,1,3.23-3.23A3.24,3.24,0,0,1,14.44,14.36Zm0-5.16a1.93,1.93,0,1,0,1.92,1.93A1.94,1.94,0,0,0,14.44,9.2Z"/></g><path id="_Контур_" data-name="&lt;Контур&gt;" class="cls-1" d="M15.71,16.84a5.75,5.75,0,0,0,1.83-.75.93.93,0,0,0,.29-1.28.92.92,0,0,0-1.27-.29h0a4,4,0,0,1-4.24,0,.91.91,0,0,0-1.27.28h0a.93.93,0,0,0,.29,1.28,5.79,5.79,0,0,0,1.82.75L11.4,18.6a.93.93,0,1,0,1.31,1.31h0l1.73-1.73,1.73,1.73a.92.92,0,0,0,1.3,0h0a.92.92,0,0,0,0-1.3h0l-1.76-1.76"/><circle id="_Контур_2" data-name="&lt;Контур&gt;" class="cls-2" cx="14.44" cy="14.44" r="14"/></g></g></g></g></svg>