<svg xmlns="http://www.w3.org/2000/svg" viewBox="0 0 13.28 13.28"><defs><style>.cls-1{stroke:#fff;stroke-miterlimit:10;stroke-width:0.2px;}</style></defs><title>Ресурс 6</title><g id="Слой_2" data-name="Слой 2"><g id="_1280" data-name="1280"><g id="news_card" data-name="news card"><path class="cls-1" d="M10.22,1.12H1.12V8.59h1.1a.52.52,0,0,1,.43.24l.59.94.6-.94a.51.51,0,0,1,.43-.24h6V1.12Zm3,1.43V11a.51.51,0,0,1-.51.51H11.35l-.88,1.39a.51.51,0,0,1-.87,0l-.88-1.39H5a.51.51,0,0,1,0-1H9a.52.52,0,0,1,.43.24l.59.94.6-.94a.52.52,0,0,1,.43-.24h1.1V3.06h-.92v6a.51.51,0,0,1-.51.51H4.55L3.68,11a.51.51,0,0,1-.87,0L1.93,9.61H.61A.51.51,0,0,1,.1,9.1V.61A.51.51,0,0,1,.61.1H10.73a.51.51,0,0,1,.51.51V2h1.43a.51.51,0,0,1,.51.51ZM8.39,5.71H2.94a.52.52,0,0,0,0,1H8.39a.52.52,0,0,0,0-1ZM8.9,3.49A.51.51,0,0,1,8.39,4H2.94a.51.51,0,0,1-.51-.51A.51.51,0,0,1,2.94,3H8.39a.5.5,0,0,1,.51.51Z"/></g></g></g></svg>