<svg xmlns="http://www.w3.org/2000/svg" viewBox="0 0 13.96 13.96"><defs><style>.cls-1{stroke:#fff;stroke-miterlimit:10;stroke-width:0.2px;}</style></defs><title>Ресурс 8</title><g id="Слой_2" data-name="Слой 2"><g id="_1280" data-name="1280"><g id="news_card" data-name="news card"><path class="cls-1" d="M13.86,2.68V13.32a.54.54,0,0,1-.54.54H2.68a.54.54,0,1,1,0-1.07H12.79V2.68a.54.54,0,1,1,1.07,0ZM2.43,11.17a3.78,3.78,0,0,1,7.49,0ZM4.55,5.23A1.63,1.63,0,1,1,6.17,6.85,1.63,1.63,0,0,1,4.55,5.23ZM1.18,1.18h10v10H11a4.87,4.87,0,0,0-3-4,2.67,2.67,0,0,0,.87-2,2.7,2.7,0,1,0-4.53,2,4.88,4.88,0,0,0-3,4H1.18v-10ZM11.71,12.25a.54.54,0,0,0,.54-.54V.64A.54.54,0,0,0,11.71.1H.64A.54.54,0,0,0,.1.64V11.71a.54.54,0,0,0,.54.54Z"/></g></g></g></svg>