<svg xmlns="http://www.w3.org/2000/svg" viewBox="0 0 20.89 11.58"><defs><style>.cls-1{stroke:#fff;stroke-miterlimit:10;stroke-width:0.35px;}</style></defs><title>Ресурс 13</title><g id="Слой_2" data-name="Слой 2"><g id="_1280" data-name="1280"><g id="New"><path class="cls-1" d="M20.68,10.43a.8.8,0,0,1-1,.54l-5.45-1.6a.8.8,0,0,1,.45-1.54l5.46,1.6a.81.81,0,0,1,.54,1Zm-7-7.22a.8.8,0,0,1,.54-1L19.68.61a.8.8,0,0,1,.46,1.54l-5.46,1.6a.79.79,0,0,1-1-.54ZM19.91,5a.8.8,0,1,1,0,1.6H14.46a.8.8,0,1,1,0-1.6ZM10,9.42,4.83,7.35V4.23L10,2.16V9.42ZM1.78,4.49H3.22v2.6H1.78V4.49ZM11.21.31a.78.78,0,0,0-.74-.08L3.87,2.88H1a.81.81,0,0,0-.81.81V7.9A.8.8,0,0,0,1,8.7H3.22v1.9a.81.81,0,1,0,1.61,0V9.08l5.64,2.27a.78.78,0,0,0,.74-.08.79.79,0,0,0,.36-.67V1a.79.79,0,0,0-.36-.67Z"/></g></g></g></svg>