<svg xmlns="http://www.w3.org/2000/svg" viewBox="0 0 38.92 36.96"><defs><style>.cls-1{fill:#00d185;stroke:#fff;stroke-miterlimit:10;stroke-width:0.2px;}</style></defs><title>berries</title><g id="Слой_2" data-name="Слой 2"><g id="_1280" data-name="1280"><g id="New_копия_" data-name="New (копия)"><path class="cls-1" d="M22.74,20.26a8.51,8.51,0,0,0-6.14.32,7.35,7.35,0,0,1,11.89-4.74,8.47,8.47,0,0,0-5.74,4.42Zm4.7,8.09A7.35,7.35,0,1,1,20.09,21a7.36,7.36,0,0,1,7.35,7.35Zm-26,.22a21.89,21.89,0,0,1,5.47-6.92,10.76,10.76,0,0,0,4.72,1,15.73,15.73,0,0,0,2.28-.18,8.56,8.56,0,0,0-1.28,1.74l-2.57.86L6.6,23.34a.58.58,0,1,0-.52,1l2.45,1.22-4,1.33A.58.58,0,1,0,4.89,28L9,26.66,7.7,29.23a.58.58,0,1,0,1,.52l1.8-3.6L12,25.65a8.52,8.52,0,0,0-.11,5c-4.32.62-9-1.4-10.45-2.13Zm.26-16.85a24.74,24.74,0,0,1-.45-4.39,24.68,24.68,0,0,1,4.36.44c4.43.86,6.72,2.68,7.85,4.06,1.77,2.15,2.34,5,1.7,8.59l-1.77-1.77V13.51a.58.58,0,0,0-1.16,0v4L9.69,14.94V11a.58.58,0,0,0-1.16,0v2.8L6.32,11.57a.58.58,0,1,0-.82.82L7.71,14.6H4.91a.58.58,0,1,0,0,1.16h4l2.55,2.55h-4a.58.58,0,0,0,0,1.16h5.14l1.77,1.77c-3.55.64-6.43.08-8.58-1.69-2.49-2-3.58-5.39-4.06-7.82Zm28.6,3.93H30a8.53,8.53,0,0,0-3.69-2.23c.32-3.34-1.16-6.53-2.62-8.8a.58.58,0,0,0-.81-.16h0a.58.58,0,0,0-.16.79c1.33,2.07,2.68,5,2.45,7.91a8.48,8.48,0,0,0-4.88.7v-1L23.06,10a.59.59,0,0,0,0-.82.58.58,0,0,0-.83,0l-2,2V8.09a.59.59,0,0,0-.56-.6.58.58,0,0,0-.6.58v3.13l-2-2a.58.58,0,1,0-.82.82l2.8,2.8v1.69a8.58,8.58,0,0,0-2.55,2.7,9.94,9.94,0,0,0-2.21-6.13l0-.05C15,6.63,18.51,2.71,19.7,1.49c.31.31.77.81,1.3,1.45a.58.58,0,0,0,.8.08h0a.58.58,0,0,0,.08-.82A21.77,21.77,0,0,0,20.09.25a.58.58,0,0,0-.78,0c-.21.19-4.78,4.45-6,9.78A15.57,15.57,0,0,0,5.84,6.64,24.5,24.5,0,0,0,.66,6.18a.58.58,0,0,0-.55.55,24.5,24.5,0,0,0,.46,5.18C1.3,15.69,2.84,18.64,5,20.44a9.44,9.44,0,0,0,.82.6A23.38,23.38,0,0,0,.15,28.59a.58.58,0,0,0,.25.74A22.84,22.84,0,0,0,10.19,32a13,13,0,0,0,2.12-.17,8.51,8.51,0,0,0,15.34.44,8.53,8.53,0,0,0,6.89-.7.58.58,0,0,0,.19-.82h0a.58.58,0,0,0-.77-.17,7.36,7.36,0,0,1-5.84.63,8.51,8.51,0,0,0-4.3-10.48,7.32,7.32,0,0,1,6-3.88l.51,0A7.35,7.35,0,0,1,36.1,28.69a.58.58,0,0,0,.06.79h0A.58.58,0,0,0,37,29.4a8.51,8.51,0,0,0-6.7-13.76Z"/><path class="cls-1" d="M22.3,27.16a1.52,1.52,0,1,1-1.52,1.52,1.53,1.53,0,0,1,1.52-1.52Zm0,4.21a2.68,2.68,0,1,0-2.68-2.68,2.69,2.69,0,0,0,2.68,2.68Z"/><path class="cls-1" d="M32,19.76c0,.07-.11.22-.41.37a3.74,3.74,0,0,1-3,0c-.3-.15-.41-.31-.41-.37s.11-.22.41-.37a3.74,3.74,0,0,1,3,0c.3.15.41.31.41.37Zm-4.93,0c0,1,1.31,1.84,3,1.84s3-.79,3-1.84-1.31-1.84-3-1.84-3,.79-3,1.84Z"/></g></g></g></svg>