<svg xmlns="http://www.w3.org/2000/svg" viewBox="0 0 41.91 30.8"><defs><style>.cls-1{fill:#00d185;stroke:#fff;stroke-miterlimit:10;stroke-width:0.35px;}</style></defs><title>bird</title><g id="Слой_2" data-name="Слой 2"><g id="_1280" data-name="1280"><g id="New_копия_" data-name="New (копия)"><path class="cls-1" d="M34.34,22.42a1.13,1.13,0,0,0-.88.39,1.24,1.24,0,0,0-.29.81,1.16,1.16,0,0,0,1.17,1.2,1.15,1.15,0,0,0,.89-.39,1.24,1.24,0,0,0,.29-.81,1.16,1.16,0,0,0-1.18-1.2Zm0,0"/><path class="cls-1" d="M35.52,20.07a1.23,1.23,0,0,0-.29.81,1.16,1.16,0,0,0,1.17,1.2,1.14,1.14,0,0,0,.88-.39,1.24,1.24,0,0,0,.29-.81,1.17,1.17,0,0,0-1.17-1.2,1.13,1.13,0,0,0-.88.39Zm0,0"/><path class="cls-1" d="M35.2,16.71a1.24,1.24,0,0,0-.29.81,1.16,1.16,0,0,0,1.17,1.2,1.14,1.14,0,0,0,.88-.39,1.25,1.25,0,0,0,.29-.81,1.16,1.16,0,0,0-1.17-1.2,1.14,1.14,0,0,0-.89.39Zm0,0"/><path class="cls-1" d="M34.06,19.77a1.16,1.16,0,0,0-1.17-1.2A1.14,1.14,0,0,0,32,19a1.25,1.25,0,0,0-.29.81A1.16,1.16,0,0,0,32.89,21a1.14,1.14,0,0,0,.88-.39,1.24,1.24,0,0,0,.29-.81Zm0,0"/><path class="cls-1" d="M20.08,22.54a1.14,1.14,0,0,0,.88-.39,1.24,1.24,0,0,0,.29-.81,1.16,1.16,0,0,0-1.17-1.2,1.14,1.14,0,0,0-.89.39,1.25,1.25,0,0,0-.29.81,1.16,1.16,0,0,0,1.17,1.2Zm0,0"/><path class="cls-1" d="M22,16.41A1.14,1.14,0,0,0,22.9,16a1.24,1.24,0,0,0,.29-.81A1.16,1.16,0,0,0,22,14a1.14,1.14,0,0,0-.88.39,1.23,1.23,0,0,0-.29.81A1.16,1.16,0,0,0,22,16.41Zm0,0"/><path class="cls-1" d="M21.71,17.58a1.24,1.24,0,0,0-.29.81,1.16,1.16,0,0,0,1.17,1.2,1.13,1.13,0,0,0,.88-.39,1.24,1.24,0,0,0,.29-.81,1.16,1.16,0,0,0-1.18-1.2,1.13,1.13,0,0,0-.88.39Zm0,0"/><path class="cls-1" d="M17.25,22.64a1.14,1.14,0,0,0,.88-.39,1.23,1.23,0,0,0,.29-.81,1.16,1.16,0,0,0-1.17-1.2,1.14,1.14,0,0,0-.89.39,1.24,1.24,0,0,0-.29.81,1.16,1.16,0,0,0,1.18,1.2Zm0,0"/><path class="cls-1" d="M31.32,21.77a1.14,1.14,0,0,0-.89.39,1.24,1.24,0,0,0-.29.81,1.16,1.16,0,0,0,1.17,1.2,1.13,1.13,0,0,0,.88-.39A1.24,1.24,0,0,0,32.5,23a1.17,1.17,0,0,0-1.17-1.2Zm0,0"/><path class="cls-1" d="M33.39,17.41a1.14,1.14,0,0,0,.89-.39,1.25,1.25,0,0,0,.29-.81A1.16,1.16,0,0,0,33.39,15a1.14,1.14,0,0,0-.88.39,1.24,1.24,0,0,0-.29.81,1.16,1.16,0,0,0,1.18,1.2Zm0,0"/><path class="cls-1" d="M38.19,11.47A18.62,18.62,0,0,0,28.8,3.35,13.2,13.2,0,0,0,17.19,4.5a6.76,6.76,0,0,1-.9-.95,2.61,2.61,0,0,0-.43-2.45A3,3,0,0,0,13.68.17a2.34,2.34,0,0,0-2.07.9A4.19,4.19,0,0,0,10.91,3,3,3,0,0,0,8.43,4.78,2.31,2.31,0,0,0,9.52,7.39c1,.63,3,.15,3.11.12l.53.33a25,25,0,0,0-2.76,3.51A5.81,5.81,0,0,1,8.13,9.51a2.62,2.62,0,0,0-.43-2.45,3,3,0,0,0-2.18-.92A2.35,2.35,0,0,0,3.45,7,4.22,4.22,0,0,0,2.75,9,3,3,0,0,0,.27,10.75a2.31,2.31,0,0,0,1.09,2.61c1,.63,3,.15,3.11.12l.15.09a4.16,4.16,0,0,1,.64.43c0,.05,0,.06,0,.14a.86.86,0,0,0,.24,1,3.27,3.27,0,0,0,1,.63,3.65,3.65,0,0,1,.59.34,10.09,10.09,0,0,1,.87.76c-1.68,3.1-2.43,8,.36,10.62,2,1.9,5.57,2.29,8.18,2.72a46.93,46.93,0,0,0,11.43.21c4.65-.41,10.32-1.29,12.85-5.55s-.29-9.67-2.55-13.36ZM11.14,6c-.48,0-.95-.19-.87-.64.1-.61.94-.9,1.73-.72a.88.88,0,0,0,1-1.1c-.29-.66-.29-1.24.27-1.48a.94.94,0,0,1,1.14.17c.21.28.2.66,0,1.25a.91.91,0,0,0,0,.8,9.64,9.64,0,0,0,1.09,1c-.36.35-.75.75-1.15,1.16a6.15,6.15,0,0,0-1-.75c-.53-.26-1.84.28-2.18.28Zm-5,6.43a6.12,6.12,0,0,0-1-.75C4.62,11.44,3.31,12,3,12s-.95-.19-.87-.64c.1-.61.94-.9,1.73-.72a.88.88,0,0,0,1-1.1c-.29-.66-.29-1.24.27-1.48a.94.94,0,0,1,1.14.17c.21.27.2.66,0,1.25a.91.91,0,0,0,0,.8,9.69,9.69,0,0,0,1.1,1c-.36.35-.75.75-1.15,1.16ZM7.32,14,8.7,12.54a4.4,4.4,0,0,0,2.72.86A11.77,11.77,0,0,0,14.17,13a15.18,15.18,0,0,1,5.67-.5,5,5,0,0,1,4.25,2.88,5.67,5.67,0,0,1-.9,5.9,5.86,5.86,0,0,1-5.48,2.07,7.37,7.37,0,0,1-4.09-2.56c-.59-.67-1.16-1.4-1.7-2.1A18,18,0,0,0,7.32,14ZM37.21,26c-3,2-8.28,2.65-11.85,2.79C20,29,11.46,28.18,9.17,25.92c-1-1-1.7-4.38,0-7.69.39.48.76,1,1.12,1.45a16.23,16.23,0,0,0,4.29,4.37,7.94,7.94,0,0,0,4.11,1.15h0A7.62,7.62,0,0,0,25.9,14.94a6.59,6.59,0,0,0-4.22-4,12.78,12.78,0,0,0-5.93-.2c-.55.08-1.12.23-1.66.36s-1.1.27-1.64.35c3.79-5.44,10-9.31,16.68-6.09C32,6.78,35,10.1,36.8,12.65c2.66,3.7,5.2,10.21.41,13.35Zm0,0"/></g></g></g></svg>