<svg xmlns="http://www.w3.org/2000/svg" viewBox="0 0 34.38 36.66"><defs><style>.cls-1{fill:#00d185;stroke:#fff;stroke-miterlimit:10;stroke-width:0.2px;}</style></defs><title>box</title><g id="Слой_2" data-name="Слой 2"><g id="_1280" data-name="1280"><g id="New_копия_" data-name="New (копия)"><path class="cls-1" d="M17.72,35.18V17l3.69-1.78a.53.53,0,1,0-.46-1L17.19,16l-1.48-.71a.53.53,0,0,0-.46,1l1.41.68V35.18L1.17,27.7V9.48L13,15.17a.53.53,0,0,0,.46-1L1.86,8.63,7.17,6.06l16,7.75h0v6.41a.53.53,0,0,0,.77.48l4-1.93a.53.53,0,0,0,.3-.48V11.85l4.93-2.38V27.7L17.72,35.18Zm6.56-21.39,2.93-1.41V18l-2.93,1.41V13.78ZM11.55,4l15.3,7.39-3.13,1.51L8.43,5.49,11.55,4Zm5.64-2.74,15.33,7.4-4.44,2.14L28,10.71,12.76,3.37l4.43-2.14ZM34,8.14,17.42.15a.53.53,0,0,0-.46,0L.4,8.14a.53.53,0,0,0-.3.48V28a.53.53,0,0,0,.3.48l16.55,8a.53.53,0,0,0,.46,0l16.55-8a.53.53,0,0,0,.3-.48V8.63a.53.53,0,0,0-.3-.48Z"/><path class="cls-1" d="M5.58,25.63,3.15,24.46a.53.53,0,1,0-.46,1l2.43,1.17a.53.53,0,0,0,.46-1Z"/><path class="cls-1" d="M7.81,24.17,3.15,21.92a.53.53,0,1,0-.46,1l4.66,2.25a.53.53,0,0,0,.46-1Z"/></g></g></g></svg>