<svg xmlns="http://www.w3.org/2000/svg" viewBox="0 0 25.03 40.71"><defs><style>.cls-1{fill:#00d185;stroke:#fff;stroke-miterlimit:10;stroke-width:0.2px;}</style></defs><title>chemistry</title><g id="Слой_2" data-name="Слой 2"><g id="_1280" data-name="1280"><g id="New_копия_" data-name="New (копия)"><path class="cls-1" d="M22.89,18.65A4.22,4.22,0,0,1,21,15.13V9.25h.65A1.31,1.31,0,0,0,23,7.94V6.74a1.3,1.3,0,0,0-.07-.41L21.12,1A1.3,1.3,0,0,0,19.88.1H.1V5.23l3.83.59a13.22,13.22,0,0,1-.3,1.64,12.7,12.7,0,0,1-3.34,5.9l-.19.19v2.23H1.61A5.5,5.5,0,0,0,6,13.59a5.45,5.45,0,0,0,.86-1.71L8.46,6.52l.35.05L9.9,8.75v3.5L8,14.14a4.64,4.64,0,0,0-1.37,3.3,4.7,4.7,0,0,0,.49,2.09l.62,1.24a1.84,1.84,0,0,1,.19.82,1.82,1.82,0,0,1-.86,1.55L5.19,24.32a5.28,5.28,0,0,0-2.24,6l2.63,8.4a2.6,2.6,0,0,0,2.49,1.83H22.31A2.62,2.62,0,0,0,24.93,38V22.45a4.56,4.56,0,0,0-2-3.81ZM19.7,11.86h-2V9.25h2ZM11.21,9.25h2v2.61h-2Zm3.27,0h2v2.61h-2ZM1.41,4.11V1.41H4V4.34c0,.06,0,.12,0,.18ZM5.6,11.51a4.15,4.15,0,0,1-.66,1.3,4.19,4.19,0,0,1-3.33,1.67h-.2v-.39a14,14,0,0,0,3.5-6.36A14,14,0,0,0,5.22,6l1.93.3ZM5.32,4.71c0-.13,0-.25,0-.38V1.41H19.88l1.78,5.33v1.2H11L9.68,5.39ZM23.62,38a1.31,1.31,0,0,1-1.31,1.31H8.08a1.3,1.3,0,0,1-1.25-.92L4.2,30a4,4,0,0,1,1.69-4.55l1.89-1.18a3.12,3.12,0,0,0,1.47-2.66,3.15,3.15,0,0,0-.33-1.4L8.3,19a3.37,3.37,0,0,1,.63-3.89l1.9-1.9H19.7v2a5.53,5.53,0,0,0,2.47,4.61,3.26,3.26,0,0,1,1.46,2.72Zm0,0"/><path class="cls-1" d="M10.09,19.61,11.25,19l-.62-1.24a.75.75,0,0,1,.14-.87l2.09-2.09-.92-.92L9.85,16a2.06,2.06,0,0,0-.39,2.38Zm0,0"/><path class="cls-1" d="M19,21H13.66a1.93,1.93,0,0,0-1.88,1.63,5.6,5.6,0,0,1-2.62,3.83L7.27,27.65a1.35,1.35,0,0,0-.58,1.55l2.05,6.57a1.3,1.3,0,0,0,1.25.92H19.7A1.31,1.31,0,0,0,21,35.38V23a2,2,0,0,0-2-2Zm.65,14.37H10L8,28.76l1.89-1.18a6.89,6.89,0,0,0,3.22-4.72.62.62,0,0,1,.59-.54H19a.65.65,0,0,1,.65.65Zm0,0"/><rect class="cls-1" x="10.55" y="29.5" width="1.31" height="1.31"/><rect class="cls-1" x="13.82" y="29.5" width="1.31" height="1.31"/><rect class="cls-1" x="17.09" y="29.5" width="1.31" height="1.31"/><rect class="cls-1" x="10.55" y="32.12" width="7.84" height="1.31"/><rect class="cls-1" x="12.51" y="26.89" width="5.88" height="1.31"/><rect class="cls-1" x="13.82" y="24.27" width="4.57" height="1.31"/></g></g></g></svg>