<svg xmlns="http://www.w3.org/2000/svg" viewBox="0 0 41.32 42.18"><defs><style>.cls-1{fill:#00d185;stroke:#fff;stroke-miterlimit:10;stroke-width:0.3px;}</style></defs><title>corn</title><g id="Слой_2" data-name="Слой 2"><g id="_1280" data-name="1280"><g id="New_копия_" data-name="New (копия)"><path class="cls-1" d="M35.52,42a.8.8,0,1,0,0-1.61H26.08l1.81-4.23h.27l.33,0a2.77,2.77,0,0,0,1.37-.56l3.91-2.84A2.73,2.73,0,0,0,34.88,31,2.83,2.83,0,0,0,34.46,29l1.38-1a2.8,2.8,0,0,0,.67-3.76l1.38-1a2.81,2.81,0,0,0,.84-3.46l2.37-5.54a.8.8,0,1,0-1.48-.63L37.52,18.5a2.83,2.83,0,0,0-1.93-.25l3.16-7.37a.8.8,0,0,0-1.48-.63l-3.16,7.38a2.83,2.83,0,0,0-1.52-1.23l2.11-4.92a.8.8,0,1,0-1.48-.63l-2.37,5.54a2.8,2.8,0,0,0-1.93,3l.2,1.71a2.8,2.8,0,0,0-2.26,3.08l.2,1.71a2.8,2.8,0,0,0-2.25,3.08l.57,4.8a2.77,2.77,0,0,0,1,1.84l-2.08,4.84H21.47V28.52a2.78,2.78,0,0,0,1.66-1.29L25.54,23a2.8,2.8,0,0,0-.86-3.72l.86-1.49a2.8,2.8,0,0,0-.86-3.72l.86-1.49a2.8,2.8,0,0,0-.59-3.51v-6a.8.8,0,1,0-1.61,0V8.45A2.83,2.83,0,0,0,21.47,9V1a.8.8,0,0,0-1.61,0V9A2.82,2.82,0,0,0,18,8.45V3.09a.8.8,0,1,0-1.61,0v6a2.8,2.8,0,0,0-.59,3.51l.86,1.49a2.8,2.8,0,0,0-.86,3.72l.86,1.49A2.83,2.83,0,0,0,15.49,21a2.73,2.73,0,0,0,.29,2.1l2.47,4.14a2.77,2.77,0,0,0,1,1.06,2.8,2.8,0,0,0,.56.24V40.43H17l-2.08-4.84a2.78,2.78,0,0,0,1-1.84l.57-4.8a2.8,2.8,0,0,0-2.26-3.08l.2-1.71a2.8,2.8,0,0,0-2.26-3.08l.2-1.71a2.8,2.8,0,0,0-1.93-3L8.1,10.84a.8.8,0,1,0-1.48.63l2.11,4.92a2.83,2.83,0,0,0-1.52,1.23L4.05,10.24a.8.8,0,0,0-1.48.63l3.15,7.37a2.83,2.83,0,0,0-1.93.25L1.69,13.58a.8.8,0,0,0-1.48.63l2.37,5.54a2.8,2.8,0,0,0,.84,3.46l1.38,1A2.8,2.8,0,0,0,5.48,28l1.38,1A2.83,2.83,0,0,0,6.44,31a2.73,2.73,0,0,0,1.1,1.82l3.91,2.84a2.77,2.77,0,0,0,1.37.56l.33,0h.27l1.81,4.23H5.8A.8.8,0,0,0,5.8,42ZM20.69,20.25l0,.06,0-.06a2.78,2.78,0,0,0-.65-.76l2.1-3.64a1.2,1.2,0,0,1,1.63-.44A1.19,1.19,0,0,1,24.15,17l-1,1.82a2.84,2.84,0,0,0-.71.1,2.78,2.78,0,0,0-1.7,1.3ZM17.18,17a1.19,1.19,0,1,1,2.06-1.19l.5.86-1.25,2.16h-.26Zm5.63-7a1.18,1.18,0,0,1,.9.12,1.19,1.19,0,0,1,.44,1.63l-1,1.82a2.84,2.84,0,0,0-.71.1,2.78,2.78,0,0,0-1.7,1.3l0,.06,0-.06a2.78,2.78,0,0,0-.65-.76l2.1-3.64a1.18,1.18,0,0,1,.72-.55Zm-3.57.55.5.86-1.25,2.16h-.26l-1-1.82a1.19,1.19,0,1,1,2.06-1.19ZM17,21.36a1.2,1.2,0,0,1,.56-.74,1.2,1.2,0,0,1,1.63.44l.5.86-1.36,2.35-1.21-2a1.14,1.14,0,0,1-.12-.88Zm2.65,5.11v0a1.2,1.2,0,0,1-.13-.31,1.18,1.18,0,0,1,.12-.9l2.42-4.18a1.18,1.18,0,0,1,.72-.55,1.23,1.23,0,0,1,.31,0,1.19,1.19,0,0,1,1,1.79l-2.42,4.18A1.18,1.18,0,0,1,21,27a1.2,1.2,0,0,1-.34,0h0a1.18,1.18,0,0,1-1-.55ZM12.85,24l-.25,2.08a2.8,2.8,0,0,0-1.66,2.23v.06l-.05,0a2.78,2.78,0,0,0-.9-.45l.5-4.18a1.19,1.19,0,1,1,2.37.28Zm-4-5.86a1.19,1.19,0,0,1,1.92,1.08l-.25,2.08A2.8,2.8,0,0,0,8.89,23.5v.06l-.05,0a2.78,2.78,0,0,0-.9-.45l.5-4.18a1.18,1.18,0,0,1,.45-.79ZM4.15,20.26A1.2,1.2,0,0,1,5.81,20l.8.61L6.32,23.1l-.25.09L4.39,21.93a1.19,1.19,0,0,1-.24-1.67ZM6.2,25.05a1.19,1.19,0,0,1,1.67-.24l.79.59-.3,2.48L8.12,28,6.44,26.72a1.19,1.19,0,0,1-.24-1.67ZM8,30.74a1.19,1.19,0,0,1,.22-.9,1.2,1.2,0,0,1,1.67-.24l.79.59-.32,2.69L8.48,31.5A1.14,1.14,0,0,1,8,30.74Zm4.45,3.66h0a1.22,1.22,0,0,1-.24-.23,1.18,1.18,0,0,1-.25-.88l.57-4.8a1.19,1.19,0,0,1,1.18-1.05h.14a1.19,1.19,0,0,1,1,1.32l-.57,4.8a1.18,1.18,0,0,1-.45.79,1.22,1.22,0,0,1-.3.17h0a1.18,1.18,0,0,1-1.1-.13ZM31.56,17.86a1.2,1.2,0,0,1,1.32,1l.5,4.18a2.78,2.78,0,0,0-.9.45l-.05,0V23.5a2.8,2.8,0,0,0-1.66-2.23l-.25-2.08a1.19,1.19,0,0,1,1-1.32Zm-2.05,4.79a1.2,1.2,0,0,1,.36,0h0a1.19,1.19,0,0,1,.95,1l.5,4.18a2.78,2.78,0,0,0-.9.45l-.05,0v-.06a2.8,2.8,0,0,0-1.66-2.23L28.47,24a1.19,1.19,0,0,1,1-1.32ZM27.74,34.52h0a1.2,1.2,0,0,1-.3-.17,1.18,1.18,0,0,1-.45-.79l-.57-4.8a1.19,1.19,0,0,1,1-1.32h.14a1.19,1.19,0,0,1,1.18,1.05l.57,4.8a1.18,1.18,0,0,1-.25.88,1.21,1.21,0,0,1-.24.23h0a1.18,1.18,0,0,1-1.1.13Zm5.55-3.78a1.14,1.14,0,0,1-.46.76l-1.91,1.39-.32-2.69.79-.59a1.2,1.2,0,0,1,1.67.24,1.2,1.2,0,0,1,.22.9Zm1.59-4L33.2,28l-.25-.09-.3-2.48.79-.59a1.2,1.2,0,0,1,1.67.24,1.19,1.19,0,0,1-.24,1.67Zm2.51-5.57a1.18,1.18,0,0,1-.46.78l-1.68,1.26L35,23.1l-.3-2.48.79-.6a1.19,1.19,0,0,1,1.89,1.12Zm0,0"/></g></g></g></svg>