<svg xmlns="http://www.w3.org/2000/svg" viewBox="0 0 33.29 47.41"><defs><style>.cls-1{fill:#00d185;stroke:#fff;stroke-miterlimit:10;stroke-width:0.35px;}</style></defs><title>croup</title><g id="Слой_2" data-name="Слой 2"><g id="_1280" data-name="1280"><g id="New_копия_" data-name="New (копия)"><path class="cls-1" d="M25.27,45.66H1.74V12.72H25.27V45.66Zm.78-34.51H1a.78.78,0,0,0-.78.78V46.45a.78.78,0,0,0,.78.78h25.1a.78.78,0,0,0,.78-.78V11.94a.78.78,0,0,0-.78-.78Z"/><path class="cls-1" d="M25.64,11.15H2.42L4.52,8H27.73l-2.09,3.14Zm4.25-4.29a.78.78,0,0,0-.69-.41H4.1a.78.78,0,0,0-.65.35L.31,11.5A.78.78,0,0,0,1,12.72h25.1a.78.78,0,0,0,.65-.35l3.14-4.71a.78.78,0,0,0,0-.8Z"/><path class="cls-1" d="M31.55,45.66H26.84V12.18l2.35-3.53,2.35,3.53V45.66ZM33,11.5,29.85,6.8a.81.81,0,0,0-1.3,0L25.4,11.5a.78.78,0,0,0-.13.44V46.45a.78.78,0,0,0,.78.78h6.27a.78.78,0,0,0,.78-.78V11.94A.78.78,0,0,0,33,11.5Z"/><path class="cls-1" d="M28.41,6.45H4.88V2.53a.79.79,0,0,1,.79-.79h22a.79.79,0,0,1,.79.79V6.45ZM27.62.17h-22A2.36,2.36,0,0,0,3.31,2.53v4.7A.78.78,0,0,0,4.1,8h25.1A.78.78,0,0,0,30,7.23V2.53A2.36,2.36,0,0,0,27.62.17Z"/><path class="cls-1" d="M15.86,20.08l-2-1a.79.79,0,0,0-.35-.08.78.78,0,0,0-.35.08l-2,1V12.72h4.71v7.36Zm.78-8.93H10.37a.78.78,0,0,0-.78.78v9.41a.78.78,0,0,0,1.13.7l2.79-1.39,2.79,1.39a.78.78,0,0,0,1.13-.7V11.94a.78.78,0,0,0-.78-.78Z"/><path class="cls-1" d="M16.08,11.15H11.46L12.5,8h4.62l-1,3.14Zm2.77-4.38a.78.78,0,0,0-.64-.33H11.94A.78.78,0,0,0,11.2,7L9.63,11.69a.78.78,0,0,0,.74,1h6.27a.78.78,0,0,0,.74-.54L19,7.48a.78.78,0,0,0-.11-.71Z"/><path class="cls-1" d="M13.51,26.06a.78.78,0,0,0-.78.78v14.9a.78.78,0,1,0,1.57,0V26.84a.78.78,0,0,0-.78-.78Z"/><path class="cls-1" d="M14.39,32.23a3.94,3.94,0,0,1,2.94-2.94,3.94,3.94,0,0,1-2.94,2.94Zm3.82-4.61a5.5,5.5,0,0,0-5.49,5.49.78.78,0,0,0,.78.78A5.5,5.5,0,0,0,19,28.41a.78.78,0,0,0-.78-.78Z"/><path class="cls-1" d="M9.69,29.29a3.93,3.93,0,0,1,2.94,2.94,3.93,3.93,0,0,1-2.94-2.94ZM8.8,27.62a.78.78,0,0,0-.78.78,5.5,5.5,0,0,0,5.49,5.49.78.78,0,0,0,.78-.78A5.5,5.5,0,0,0,8.8,27.62Z"/><path class="cls-1" d="M14.39,38.5a3.94,3.94,0,0,1,2.94-2.94,3.94,3.94,0,0,1-2.94,2.94Zm3.82-4.61a5.5,5.5,0,0,0-5.49,5.49.78.78,0,0,0,.78.78A5.5,5.5,0,0,0,19,34.68a.78.78,0,0,0-.78-.78Z"/><path class="cls-1" d="M9.69,35.57a3.93,3.93,0,0,1,2.94,2.94,3.93,3.93,0,0,1-2.94-2.94ZM8.8,33.9a.78.78,0,0,0-.78.78,5.5,5.5,0,0,0,5.49,5.49.78.78,0,0,0,.78-.78A5.5,5.5,0,0,0,8.8,33.9Z"/></g></g></g></svg>