<svg xmlns="http://www.w3.org/2000/svg" viewBox="0 0 35.09 44"><defs><style>.cls-1{fill:#00d185;stroke:#fff;stroke-miterlimit:10;stroke-width:0.2px;}</style></defs><title>feed</title><g id="Слой_2" data-name="Слой 2"><g id="_1280" data-name="1280"><g id="New_копия_" data-name="New (копия)"><path class="cls-1" d="M34.59,22a53.22,53.22,0,0,0-.65-8.41.68.68,0,0,0-1.35.22A51.85,51.85,0,0,1,33.22,22a46,46,0,0,1-2,13.86.68.68,0,0,0,.14.67c2.19,2.45,2.68,4.84,1.87,5.64s-3.46.22-5.93-2.14a.68.68,0,0,0-.69-.15,37.62,37.62,0,0,1-9.3,1.1,38.58,38.58,0,0,1-9-1,.68.68,0,0,0-.67.15c-2.44,2.27-5,2.89-5.83,2s-.38-2.95,1.58-5.3a.68.68,0,0,0,.15-.52v-.07a.68.68,0,0,0,0-.16A45.57,45.57,0,0,1,1.47,22,45.59,45.59,0,0,1,3.52,7.9a.69.69,0,0,0,0-.18V7.63a.68.68,0,0,0-.15-.5C1.45,4.78,1.07,2.59,1.83,1.83s3.37-.23,5.79,2A.68.68,0,0,0,8.29,4a38.44,38.44,0,0,1,9-1,37.48,37.48,0,0,1,9.34,1.12.68.68,0,0,0,.69-.15c2.46-2.32,5-3,5.89-2.1S33.58,5,31.39,7.47a.68.68,0,0,0-.14.67,34.65,34.65,0,0,1,.94,3.54.68.68,0,0,0,1.34-.28c-.25-1.16-.54-2.27-.86-3.31,2.34-2.77,3-5.77,1.56-7.22s-4.68-.72-7.5,1.8A40.64,40.64,0,0,0,17.34,1.6a42.45,42.45,0,0,0-9.08,1A10.71,10.71,0,0,0,4.43.34,3.47,3.47,0,0,0,.87.87C-.51,2.25,0,5,2.13,7.73A47.37,47.37,0,0,0,.1,22a47.37,47.37,0,0,0,2,14.27C0,39-.51,41.75.87,43.13a2.81,2.81,0,0,0,2.05.77,5.35,5.35,0,0,0,1.53-.25,10.78,10.78,0,0,0,3.85-2.27,42.61,42.61,0,0,0,9,1,40.8,40.8,0,0,0,9.34-1.05c2.84,2.55,6,3.35,7.54,1.84s.79-4.45-1.56-7.22A48,48,0,0,0,34.59,22Z"/><path class="cls-1" d="M8.42,22.63H26.49v9.68H8.42V22.63ZM7.05,22V33a.68.68,0,0,0,.68.68H27.17a.68.68,0,0,0,.68-.68V22a.68.68,0,0,0-.68-.68H7.74a.68.68,0,0,0-.68.68Z"/><path class="cls-1" d="M12.81,25.59h9.06a.68.68,0,0,0,0-1.37H12.81a.68.68,0,0,0,0,1.37Z"/><path class="cls-1" d="M24.69,26.79H23.17a.68.68,0,0,0,0,1.37h1.52a.68.68,0,1,0,0-1.37Z"/><path class="cls-1" d="M10,28.16H21a.68.68,0,0,0,0-1.37H10a.68.68,0,1,0,0,1.37Z"/><path class="cls-1" d="M24.69,29.55h-11a.68.68,0,0,0,0,1.37h11a.68.68,0,1,0,0-1.37Z"/><path class="cls-1" d="M11.76,29.55H10a.68.68,0,1,0,0,1.37h1.77a.68.68,0,1,0,0-1.37Z"/><path class="cls-1" d="M19.64,14.23a3.53,3.53,0,0,1,2.17-1.92,3.14,3.14,0,0,1-.58,1.6A3.2,3.2,0,0,1,19.39,15a3.73,3.73,0,0,1,.25-.81Zm-4.22-.32h0A3.85,3.85,0,0,1,13,13a6,6,0,0,1,.78-.05,5.21,5.21,0,0,1,2.77.77,4.36,4.36,0,0,1-1.12.15ZM11.47,12a.68.68,0,0,0-.37,1,5.43,5.43,0,0,0,4.32,2.27h0a6,6,0,0,0,2.14-.41A10.59,10.59,0,0,1,18,16l0,.09a10.55,10.55,0,0,1,.44,3,.68.68,0,0,0,1.37,0,11.87,11.87,0,0,0-.31-2.71,4.61,4.61,0,0,0,2.81-1.68,4.83,4.83,0,0,0,.83-3.43.68.68,0,0,0-.81-.55,5.15,5.15,0,0,0-3.89,2.82A13.28,13.28,0,0,0,17,11.37a13.06,13.06,0,0,0-2.82-2.65.68.68,0,0,0-.74,1.15,11.69,11.69,0,0,1,2.22,2,6.7,6.7,0,0,0-1.89-.27,8,8,0,0,0-2.3.36Z"/></g></g></g></svg>