<svg xmlns="http://www.w3.org/2000/svg" viewBox="0 0 38.08 38.36"><defs><style>.cls-1{fill:#00d185;stroke:#fff;stroke-miterlimit:10;stroke-width:0.35px;}</style></defs><title>fish</title><g id="Слой_2" data-name="Слой 2"><g id="_1280" data-name="1280"><g id="New_копия_" data-name="New (копия)"><path class="cls-1" d="M7.29,26a2.4,2.4,0,1,0,.7,1.7,2.39,2.39,0,0,0-.7-1.7ZM6.16,28.25a.8.8,0,0,1-1.37-.57.8.8,0,0,1,1.37-.57h0a.79.79,0,0,1,.24.56.81.81,0,0,1-.24.57Zm0,0"/><path class="cls-1" d="M37.87,11.13a1.84,1.84,0,0,0-1-1.32c-.36-.16-.5-.53-.68-1.11S35.63,7,34.37,7.09A1.21,1.21,0,0,1,33,5.69a2.86,2.86,0,0,0-.8-2.34A2.91,2.91,0,0,0,30,2.55c0-.05,0-.11,0-.16A2.25,2.25,0,0,0,27.84.31,2.32,2.32,0,0,0,26,.44,1.87,1.87,0,0,0,25.15,2l0,5H17a16.7,16.7,0,0,0-3.7.43,13.58,13.58,0,0,0-2.14-4.53l-.39-.55-.61.3c-.15.07-3.74,1.88-4.72,5a5.3,5.3,0,0,0,.22,3.81A16.72,16.72,0,0,0,.17,23.78V38.19h14.3a16.79,16.79,0,0,0,11.95-4.95c.39-.39.75-.79,1.1-1.21.35,0,.71,0,1.11,0a13.41,13.41,0,0,0,8-2.62l.55-.39-.3-.61c-.09-.19-2.15-4.24-5.65-4.89a17.56,17.56,0,0,0,.17-2.28V13.17l5.05,0h.06a1.65,1.65,0,0,0,1-.5h0a1.78,1.78,0,0,0,.43-1.57ZM6.92,10.34a3.59,3.59,0,0,1,0-2.22,7.73,7.73,0,0,1,3.31-3.7,12.07,12.07,0,0,1,1.51,3.41,16.86,16.86,0,0,0-2.1.86l-.49.24-.66.38-.66.4-.58.4c-.11.08-.23.15-.34.23Zm24,14.8c2,.38,3.52,2.4,4.16,3.43a11.8,11.8,0,0,1-6.42,1.91,16.66,16.66,0,0,0,2.23-5.21s0-.09,0-.13Zm5.35-13.53-6.49-.06v9.73A15.49,15.49,0,0,1,29.52,24l0,.11c0,.24-.1.48-.16.72l-.07.31a15.35,15.35,0,0,1-2.75,5.54l-.31.39c-.29.35-.59.69-.91,1a15.2,15.2,0,0,1-10.82,4.48H1.78V23.78A15.2,15.2,0,0,1,11.32,9.69h0a14.27,14.27,0,0,1,1.53-.51A15.09,15.09,0,0,1,17,8.59h9.76l0-6.53a.45.45,0,0,1,.08-.26.86.86,0,0,1,.54,0l.2,0c.65.07.68.26.79.8A1.49,1.49,0,0,0,30,4.15a1.29,1.29,0,0,1,1.06.34,1.28,1.28,0,0,1,.33,1.05,2.88,2.88,0,0,0,.8,2.34,2.89,2.89,0,0,0,2.27.8c.05.12.12.32.16.47a3,3,0,0,0,1.55,2.11.25.25,0,0,1,.13.18.19.19,0,0,1,0,.16Zm.11.13v0l.48.44Zm0,0"/><path class="cls-1" d="M5.59,20.09v1.6a11.21,11.21,0,0,1,11.2,11.2h1.6a12.82,12.82,0,0,0-12.8-12.8Zm0,0"/><path class="cls-1" d="M8.2,17.49v1.6a11.21,11.21,0,0,1,11.2,11.2H21A12.81,12.81,0,0,0,8.2,17.49Zm0,0"/><path class="cls-1" d="M10.68,15v1.6a11.21,11.21,0,0,1,11.2,11.2h1.6A12.82,12.82,0,0,0,10.68,15Zm0,0"/><path class="cls-1" d="M13.29,12.4V14a11.21,11.21,0,0,1,11.2,11.2h1.6a12.81,12.81,0,0,0-12.8-12.8Zm0,0"/></g></g></g></svg>