<svg xmlns="http://www.w3.org/2000/svg" viewBox="0 0 30.43 41.43"><defs><style>.cls-1{fill:#00d185;stroke:#fff;stroke-miterlimit:10;stroke-width:0.2px;}</style></defs><title>freeze</title><g id="Слой_2" data-name="Слой 2"><g id="_1280" data-name="1280"><g id="New_копия_" data-name="New (копия)"><path class="cls-1" d="M28.27.1H2.16A2.06,2.06,0,0,0,.1,2.16v37.1a2.06,2.06,0,0,0,2.06,2.06H28.27a2.06,2.06,0,0,0,2.06-2.06V2.16A2.06,2.06,0,0,0,28.27.1ZM29,2.16V15.22H8.35V1.47H28.27a.69.69,0,0,1,.69.69Zm-22,24H6.28a.69.69,0,0,1-.69-.69V22.77a.69.69,0,0,1,.69-.69H7Zm0-15.8H6.28a.69.69,0,0,1-.69-.69V7a.69.69,0,0,1,.69-.69H7ZM1.47,2.16a.69.69,0,0,1,.69-.69H7V4.91H6.28A2.06,2.06,0,0,0,4.22,7V9.72a2.06,2.06,0,0,0,2.06,2.06H7v3.44H1.47Zm0,37.1V16.59H7v4.12H6.28a2.06,2.06,0,0,0-2.06,2.06v2.75a2.06,2.06,0,0,0,2.06,2.06H7V40H2.16a.69.69,0,0,1-.69-.69Zm27.48,0a.69.69,0,0,1-.69.69H8.35V16.59H29Zm0,0"/><path class="cls-1" d="M22.09,6.28h5.5a.69.69,0,0,0,.69-.69V2.85a.69.69,0,0,0-.69-.69h-5.5a.69.69,0,0,0-.69.69V5.6a.69.69,0,0,0,.69.69Zm.69-2.75H26.9V4.91H22.77Zm0,0"/><path class="cls-1" d="M24.84,39.27h2.75a.69.69,0,0,0,.69-.69V35.83a.69.69,0,1,0-1.37,0v2.06H24.84a.69.69,0,1,0,0,1.37Zm0,0"/><path class="cls-1" d="M21.4,39.27h1.37a.69.69,0,1,0,0-1.37H21.4a.69.69,0,1,0,0,1.37Zm0,0"/></g></g></g></svg>