<svg xmlns="http://www.w3.org/2000/svg" viewBox="0 0 42 42"><defs><style>.cls-1{fill:#00d185;}.cls-2{fill:#fff;}</style></defs><title>logo</title><g id="Слой_2" data-name="Слой 2"><g id="_1280" data-name="1280"><g id="New_копия_" data-name="New (копия)"><circle class="cls-1" cx="21" cy="21" r="21"/><path class="cls-2" d="M14.46,20.88c.73,2.59-2.13,7.28,5.76,8.76C21.18,23,16.41,23.2,14.46,20.88Z"/><path class="cls-2" d="M14.88,17.77c0,2,.57,4.12,5.27,4.95.62-4.62-1.66-5.66-3.61-6.8a2.91,2.91,0,0,1-1.3-2C15.15,12.44,15,5.5,15,5.5s-.17,7.86-.17,9.17.07,3.1.07,3.1Z"/><path class="cls-2" d="M17.87,12.48a2.38,2.38,0,0,1-.37-1.19c-.09-1.45-.27-8.39-.27-8.39s-.17,7.86-.17,9.17a10.18,10.18,0,0,0,.34,2.59A6,6,0,0,1,17.87,12.48Z"/><path class="cls-2" d="M27.54,20.88c-2,2.32-6.72,2.16-5.76,8.76C29.67,28.16,26.8,23.47,27.54,20.88Z"/><path class="cls-2" d="M21.85,22.71c4.7-.83,5.28-2.92,5.27-4.95h0s.07-1.82.07-3.1S27,5.5,27,5.5s-.17,6.94-.27,8.39a2.91,2.91,0,0,1-1.3,2C23.5,17,21.23,18.09,21.85,22.71Z"/><path class="cls-2" d="M24.95,12.07c0-1.31-.17-9.17-.17-9.17s-.18,6.94-.27,8.39a2.37,2.37,0,0,1-.38,1.19,6,6,0,0,1,.48,2.18A10.15,10.15,0,0,0,24.95,12.07Z"/><path class="cls-2" d="M21.88,11h0l-.08-.11a3.4,3.4,0,0,1-.57-1.76C21.12,7.69,20.95,0,20.95,0s-.17,7.86-.17,9.17a2.74,2.74,0,0,1-.31,1.32l-.39.52h0c-2,2.69-2.51,4.82.88,6.9C24.14,16,23.86,13.65,21.88,11Z"/><path class="cls-2" d="M14.35,27.65c.78,2.74-2.25,7.68,6.08,9.25C21.78,29.64,16.42,30.1,14.35,27.65Z"/><path class="cls-2" d="M27.65,27.65c-2.06,2.45-7.42,2-6.08,9.25C29.9,35.34,26.87,30.39,27.65,27.65Z"/></g></g></g></svg>