<svg xmlns="http://www.w3.org/2000/svg" viewBox="0 0 41.2 32.24"><defs><style>.cls-1{fill:#00d185;stroke:#fff;stroke-miterlimit:10;stroke-width:0.3px;}</style></defs><title>meat</title><g id="Слой_2" data-name="Слой 2"><g id="_1280" data-name="1280"><g id="New_копия_" data-name="New (копия)"><path class="cls-1" d="M37.57,5.71A21.87,21.87,0,0,0,29.75,2.1,67.17,67.17,0,0,0,13.33.15,13.19,13.19,0,0,0,.15,13.33v5.58A13.19,13.19,0,0,0,13.33,32.09c3.35,0,5.87-1,8.53-2.16a23.24,23.24,0,0,1,9.61-2.34A9.58,9.58,0,0,0,41,18V12.44A8.37,8.37,0,0,0,37.57,5.71ZM39.45,18a8,8,0,0,1-8,8,24.56,24.56,0,0,0-10.23,2.46,19.68,19.68,0,0,1-7.92,2A11.6,11.6,0,0,1,1.77,19.66a13.19,13.19,0,0,0,11.56,6.85c3.35,0,5.87-1,8.53-2.16A23.24,23.24,0,0,1,31.47,22c.3,0,.6,0,.89,0a.8.8,0,1,0-.15-1.59c-.25,0-.5,0-.75,0a24.56,24.56,0,0,0-10.23,2.46,19.68,19.68,0,0,1-7.92,2,11.58,11.58,0,1,1,0-23.16,65.52,65.52,0,0,1,16,1.89C36,5.48,39.45,8.44,39.45,12.44a8,8,0,0,1-2.52,5.8A.8.8,0,0,0,38,19.4a9.59,9.59,0,0,0,1.42-1.69V18Z"/><path class="cls-1" d="M35.18,19.5h0a.8.8,0,1,0,1.08.37A.8.8,0,0,0,35.16,19.5Z"/><path class="cls-1" d="M18.93,5.16H19a.8.8,0,0,0,.06-1.6h0a.8.8,0,0,0-.13,1.59Z"/><path class="cls-1" d="M37.85,12.44a4.66,4.66,0,0,0-.5-2.15c-.79-1.57-2.56-2.92-5.24-4A34.18,34.18,0,0,0,26,4.49c-1-.19-2-.36-3-.5a.8.8,0,1,0-.22,1.58c1,.14,2,.3,2.92.49C31.13,7.13,34.88,8.94,35.93,11a3.1,3.1,0,0,1,.33,1.43,4.79,4.79,0,0,1-4.78,4.78,24.42,24.42,0,0,0-7.91,1.33c-1.15.39-2.26.85-3.33,1.29-.71.3-1.45.6-2.18.88a12.85,12.85,0,0,1-4.72,1,8.39,8.39,0,1,1,0-16.77c.9,0,1.82,0,2.72.05l.46,0a.8.8,0,0,0,.07-1.6l-.47,0c-.92,0-1.86-.05-2.78-.05a10,10,0,1,0,0,20,14.33,14.33,0,0,0,5.29-1.1c.75-.29,1.5-.6,2.22-.9,1.05-.44,2.14-.89,3.23-1.26a22.85,22.85,0,0,1,7.4-1.25A6.39,6.39,0,0,0,37.85,12.44Z"/><path class="cls-1" d="M14.09,6.52a3.88,3.88,0,0,0-4,3.67,3.88,3.88,0,0,0,4,3.67,3.88,3.88,0,0,0,4-3.67A3.88,3.88,0,0,0,14.09,6.52Zm0,5.75a2.29,2.29,0,0,1-2.45-2.07,2.29,2.29,0,0,1,2.45-2.07,2.29,2.29,0,0,1,2.45,2.07A2.29,2.29,0,0,1,14.09,12.27Z"/></g></g></g></svg>