<svg xmlns="http://www.w3.org/2000/svg" viewBox="0 0 33.53 41.94"><defs><style>.cls-1{fill:#00d185;stroke:#fff;stroke-miterlimit:10;stroke-width:0.3px;}</style></defs><title>milk</title><g id="Слой_2" data-name="Слой 2"><g id="_1280" data-name="1280"><g id="New_копия_" data-name="New (копия)"><path class="cls-1" d="M33.37,12.49v-.24l0,0,0,0,0,0,0,0,0,0h0l-7.1-8V.81a.66.66,0,0,0-.66-.66H8.08a.66.66,0,0,0-.66.66V4.06l-7.1,8h0l0,0,0,0,0,0v0l0,0v.24s0,0,0,.06V41.13a.66.66,0,0,0,.66.66h31.9a.66.66,0,0,0,.66-.66V12.55s0,0,0-.06Zm-2.13-.6H19.65l5.8-6.57ZM24.78,1.48V3.65H13.4A.66.66,0,0,0,13.4,5H24l-6.1,6.91H2.29L8.38,5h2.36a.66.66,0,1,0,0-1.33h-2V1.48ZM1.48,18.53h16V35.15h-16Zm16-1.33h-16v-4h16Zm-16,19.27h16v4h-16Zm17.36,4V13.21H32v4H20.83a.66.66,0,1,0,0,1.33H32V35.15H20.83a.66.66,0,1,0,0,1.33H32v4Zm0,0"/><path class="cls-1" d="M13.29,25.38,10,21A.66.66,0,0,0,9,21L5.7,25.38a4.73,4.73,0,1,0,7.59,0ZM9.5,31.6a3.4,3.4,0,0,1-3.4-3.4,3.37,3.37,0,0,1,.67-2L9.5,22.52l2.73,3.65A3.4,3.4,0,0,1,9.5,31.6Zm0,0"/></g></g></g></svg>