<svg xmlns="http://www.w3.org/2000/svg" viewBox="0 0 37.64 38.04"><defs><style>.cls-1{fill:#00d185;stroke:#fff;stroke-miterlimit:10;stroke-width:0.2px;}</style></defs><title>mushrooms</title><g id="Слой_2" data-name="Слой 2"><g id="_1280" data-name="1280"><g id="New_копия_" data-name="New (копия)"><path class="cls-1" d="M15.1,37.94H9a2,2,0,0,1-1.84-2.73L8,33.09a12.25,12.25,0,0,0,.89-4.51.6.6,0,0,1,0-.14V25.69a.63.63,0,0,1,.45-.6,9.59,9.59,0,0,1,5.41,0,.63.63,0,0,1,.45.6v2a.63.63,0,0,1,0,.14v.68a12.25,12.25,0,0,0,.87,4.55l.86,2.15a2,2,0,0,1-1.84,2.72Zm-4.94-9.63a.6.6,0,0,1,0,.14,13.57,13.57,0,0,1-1,5.12l-.85,2.12a.72.72,0,0,0,.67,1H15.1a.72.72,0,0,0,.67-1l-.86-2.15a13.5,13.5,0,0,1-1-5V28a.6.6,0,0,1,0-.14V26.17a8.39,8.39,0,0,0-3.78,0v2.13Zm0,0"/><path class="cls-1" d="M14.58,29.08a.63.63,0,0,1-.63-.63V28a.6.6,0,0,1,0-.14V25.7a.63.63,0,0,1,.81-.6A4.8,4.8,0,0,1,18.24,28a.63.63,0,0,1-.51.79,27.89,27.89,0,0,1-3.12.26Zm.62-1.37a.6.6,0,0,1,0,.08c.52,0,1-.06,1.45-.11a3.94,3.94,0,0,0-1.46-1.08Zm0,0"/><path class="cls-1" d="M9.54,29.08h0a28.33,28.33,0,0,1-3.15-.26A.63.63,0,0,1,5.85,28,4.8,4.8,0,0,1,9.34,25.1a.63.63,0,0,1,.81.6v2.61a.62.62,0,0,1,0,.14.64.64,0,0,1-.63.64Zm-2.11-1.4c.45,0,.93.08,1.47.11V26.61a4,4,0,0,0-1.47,1.08Zm0,0"/><path class="cls-1" d="M31.24,24.92a2,2,0,0,1-1.83-1.21l-.9-2.11A12.24,12.24,0,0,0,26,17.78l-.11-.08-1.94-1.94A.63.63,0,0,1,23.8,15a9.54,9.54,0,0,1,3.83-3.83.63.63,0,0,1,.74.11l1.43,1.43.11.09.48.48a12.24,12.24,0,0,0,3.83,2.6l2.13.92A2,2,0,0,1,37,20l-4.31,4.31a2,2,0,0,1-1.4.58Zm-4.6-8.2.11.09a13.6,13.6,0,0,1,2.93,4.31l.9,2.11a.72.72,0,0,0,1.18.23l4.31-4.31A.72.72,0,0,0,35.84,18L33.71,17a13.5,13.5,0,0,1-4.22-2.87l-.38-.38L29,13.71l-1.18-1.18a8.38,8.38,0,0,0-2.68,2.68Zm0,0"/><path class="cls-1" d="M19.57,21.71a5.64,5.64,0,0,1-4-1.9c-4.11-4.11-3.66-11.23,1-15.89A12.73,12.73,0,0,1,24.64.13a9.87,9.87,0,0,1,7.78,2.79c3.81,3.81,1.25,7.63-2.07,11.2a.63.63,0,0,1-.45.2.68.68,0,0,1-.46-.18l-.33-.33L29,13.71l-1.18-1.18a8.37,8.37,0,0,0-2.68,2.68l1.51,1.51.11.09a.64.64,0,0,1,.19.46.64.64,0,0,1-.2.45c-2.31,2.16-4.73,4-7.18,4ZM25.4,1.36l-.68,0a11.48,11.48,0,0,0-7.3,3.42c-4.17,4.16-4.61,10.49-1,14.11,2.76,2.76,5.51,1.46,9-1.67l-1.49-1.49A.63.63,0,0,1,23.8,15a9.54,9.54,0,0,1,3.83-3.83.63.63,0,0,1,.74.11l1.43,1.43.07,0c3.66-4.07,4.1-6.53,1.66-9A8.53,8.53,0,0,0,25.4,1.36Zm0,0"/><path class="cls-1" d="M29.88,14.31a.63.63,0,0,1-.45-.18l-.33-.33L29,13.71l-1.52-1.52a.63.63,0,0,1,.15-1,4.8,4.8,0,0,1,4.54-.39.63.63,0,0,1,.2.93,28.17,28.17,0,0,1-2,2.39.63.63,0,0,1-.45.2Zm-.09-1.59.07,0c.35-.39.67-.76.95-1.1a4,4,0,0,0-1.8.27Zm0,0"/><path class="cls-1" d="M24,19.88h-.13a.63.63,0,0,1-.42-.31A4.8,4.8,0,0,1,23.8,15a.63.63,0,0,1,1-.15l1.84,1.84.11.09a.64.64,0,0,1,.19.46.64.64,0,0,1-.2.45,28.14,28.14,0,0,1-2.41,2,.63.63,0,0,1-.37.12Zm.6-3.48a4,4,0,0,0-.28,1.8c.35-.28.72-.6,1.11-1Zm0,0"/><path class="cls-1" d="M14.58,29.09a.63.63,0,0,1-.63-.63V28a.6.6,0,0,1,0-.14V26.17a8.39,8.39,0,0,0-3.78,0v2.13a.6.6,0,0,1,0,.14.65.65,0,0,1-.19.46.62.62,0,0,1-.46.18C4.63,28.92.1,28,.1,22.63.1,16.83,5.46,12.1,12,12.1a13.63,13.63,0,0,1,1.37.07.63.63,0,0,1,.57.63,8.58,8.58,0,0,0,2.44,6.11c1.87,1.86,3.71,2,6.18.5a.63.63,0,0,1,.93.34A9.39,9.39,0,0,1,24,22.63c0,5.39-4.51,6.28-9.38,6.45Zm.62-1.37a.64.64,0,0,1,0,.08c4.66-.23,7.52-1.25,7.52-5.16a7.91,7.91,0,0,0-.2-1.73,5.49,5.49,0,0,1-7-1.09,9.75,9.75,0,0,1-2.79-6.42l-.69,0c-5.89,0-10.68,4.16-10.68,9.27,0,3.91,2.86,4.93,7.53,5.16V25.69a.63.63,0,0,1,.45-.6,9.59,9.59,0,0,1,5.41,0,.63.63,0,0,1,.45.6v2Zm0,0"/></g></g></g></svg>