<svg xmlns="http://www.w3.org/2000/svg" viewBox="0 0 13.28 13.28"><defs><style>.cls-1{stroke:#fff;stroke-miterlimit:10;stroke-width:0.2px;}</style></defs><title>news</title><g id="Слой_2" data-name="Слой 2"><g id="_1280" data-name="1280"><g id="New_копия_" data-name="New (копия)"><path class="cls-1" d="M10.22,1.12H1.12V8.59H2.22a.51.51,0,0,1,.43.24l.6.94.6-.94a.51.51,0,0,1,.43-.24h5.94V1.12Zm3,1.43V11a.51.51,0,0,1-.51.51H11.35l-.88,1.39a.51.51,0,0,1-.86,0l-.88-1.39H5a.51.51,0,0,1,0-1H9a.51.51,0,0,1,.43.24l.6.94.6-.94a.51.51,0,0,1,.43-.24h1.09V3.06h-.92v6a.51.51,0,0,1-.51.51H4.55L3.68,11a.51.51,0,0,1-.86,0L1.93,9.61H.61A.51.51,0,0,1,.1,9.1V.61A.51.51,0,0,1,.61.1H10.73a.51.51,0,0,1,.51.51V2h1.43a.51.51,0,0,1,.51.51ZM8.39,5.71H2.94a.51.51,0,0,0,0,1H8.39a.51.51,0,1,0,0-1ZM8.9,3.49A.51.51,0,0,1,8.39,4H2.94a.51.51,0,0,1,0-1H8.39a.51.51,0,0,1,.51.51Z"/></g></g></g></svg>