<svg xmlns="http://www.w3.org/2000/svg" viewBox="0 0 33.57 33.72"><defs><style>.cls-1{fill:#00d185;stroke:#fff;stroke-miterlimit:10;stroke-width:0.2px;}</style></defs><title>nuts</title><g id="Слой_2" data-name="Слой 2"><g id="_1280" data-name="1280"><g id="New_копия_" data-name="New (копия)"><path class="cls-1" d="M27.58,6C22.12.53,15.89-1.21,10,1.09l-.75.3.44.68c.2.31.41.6.61.88A17.16,17.16,0,0,0,6,6.18C3,9.1,1,14.07.32,19.82c-.47,4-.16,7.53.77,9.8a3.34,3.34,0,0,0,.83,1.49l.08,0,.09.11,0,0v0h0l0,0,.19.16,0,0c1.45,1.31,4.15,2,7.67,2.06h.16c5.56,0,13-1.85,17.14-6a17.15,17.15,0,0,0,3.3-4.52c.29.19.6.39.92.58l.68.4.28-.74c2.18-5.79.41-11.94-5-17.33ZM26.45,26.66c-3.94,3.94-11.07,5.66-16.35,5.63a20.3,20.3,0,0,1-2.52-.17c3.63-.72,8.15-3.06,10.23-6.47A.66.66,0,0,0,16.67,25c-2,3.26-6.82,5.62-10.32,6-1.52.17-2.69,0-3.24-.57l0,0c-.38-.81,1.83-5.63,5-8a.66.66,0,0,0-.79-1.07,17.32,17.32,0,0,0-5.08,6.84,8.34,8.34,0,0,1,0-1.28c.39-3.51,2.75-8.33,6-10.33a.66.66,0,0,0-.69-1.13c-3,1.82-5.15,5.51-6.13,8.84A28.48,28.48,0,0,1,1.63,20C2.26,14.59,4.23,9.79,6.9,7.12A15.68,15.68,0,0,1,11.17,4,9.49,9.49,0,0,0,16.53,7.5c-.14.2-.27.4-.39.6s-.15.21-.21.31-.15.27-.23.41-.19.33-.27.49l-.1.22c-.1.22-.21.44-.29.66l0,.07a9.88,9.88,0,0,0-.07,7.36l.1.24.24.1a9.76,9.76,0,0,0,6.58.21h0c.24-.07.49-.17.74-.26l.12,0,.57-.26.3-.14.46-.25.44-.24.32-.21c.19-.13.39-.25.59-.39.26,1.39,1.18,3.62,4.17,5.91a15.62,15.62,0,0,1-3.14,4.36Zm5.14-4.57L31,21.71l-.23-.17c-4.48-3.24-4.16-6.19-4.14-6.35L27,13.4h0l-1.37,1.17c-4.38,3.72-8.41,2.66-9.51,2.26a7.67,7.67,0,0,1-.26-.91,8.68,8.68,0,0,1-.19-2,10.43,10.43,0,0,1,2.71-6.6L19.5,6l-1.72.28h-.19c-.59,0-3-.11-5.7-3.48l-.19-.24L11.31,2c5.1-1.64,10.52.07,15.33,4.89S33.13,17,31.59,22.09Zm0,0"/></g></g></g></svg>