<svg xmlns="http://www.w3.org/2000/svg" viewBox="0 0 28.88 28.88"><defs><style>.cls-1{fill:#1d1d1b;}.cls-2{fill:none;stroke:#1d1d1b;stroke-miterlimit:10;stroke-width:0.88px;}</style></defs><title>odnoklassniki</title><g id="Слой_2" data-name="Слой 2"><g id="_1280" data-name="1280"><g id="New_копия_" data-name="New (копия)"><g id="_Группа_" data-name="&lt;Группа&gt;"><g id="_Группа_2" data-name="&lt;Группа&gt;"><path id="_Составной_контур_" data-name="&lt;Составной контур&gt;" class="cls-1" d="M14.44,14.36a3.24,3.24,0,1,1,3.24-3.24A3.24,3.24,0,0,1,14.44,14.36Zm0-5.16a1.92,1.92,0,1,0,1.92,1.92A1.93,1.93,0,0,0,14.44,9.2Z"/></g><path id="_Контур_" data-name="&lt;Контур&gt;" class="cls-1" d="M15.71,16.84a5.89,5.89,0,0,0,1.83-.76.92.92,0,0,0-1-1.56h0a4,4,0,0,1-4.24,0,.92.92,0,0,0-1.27.29h0a.92.92,0,0,0,.29,1.27,5.9,5.9,0,0,0,1.83.76L11.4,18.6a.92.92,0,1,0,1.3,1.3h0l1.73-1.73,1.73,1.73a.92.92,0,0,0,1.3,0h0a.92.92,0,0,0,0-1.3h0l-1.76-1.76"/><circle id="_Контур_2" data-name="&lt;Контур&gt;" class="cls-2" cx="14.44" cy="14.44" r="14"/></g></g></g></g></svg>