<svg xmlns="http://www.w3.org/2000/svg" viewBox="0 0 39.76 40.94"><defs><style>.cls-1{fill:#00d185;stroke:#fff;stroke-miterlimit:10;stroke-width:0.35px;}</style></defs><title>seafood</title><g id="Слой_2" data-name="Слой 2"><g id="_1280" data-name="1280"><g id="New_копия_" data-name="New (копия)"><path class="cls-1" d="M17.86,4.72A1.51,1.51,0,0,0,16.5,3.11a1.39,1.39,0,0,0-1.05.36,1.54,1.54,0,0,0-.52,1.06A1.51,1.51,0,0,0,16.3,6.14h.1a1.42,1.42,0,0,0,.95-.36,1.53,1.53,0,0,0,.52-1.06Zm-1.52-.08,0,0,.73,0Zm0,0"/><path class="cls-1" d="M39.38,20.87l-2.45-4.81,1-.66.14-.11a3.16,3.16,0,0,0,.82-2.47,3,3,0,0,0-1.21-2.14L33.32,7.21l.06-.27a3.41,3.41,0,0,0-.22-2.78,3.11,3.11,0,0,0-2.08-1.57L22.52,1.24a2.83,2.83,0,0,0-1,0l0,0C18.84-.67,14.53.59,14.34.64L4.8,5.25c-1.94-1-3.19-2.43-3.1-3.94A.76.76,0,0,0,1,.51a.79.79,0,0,0-.8.71c-.11,1.91,1.06,3.67,3,4.91a1.31,1.31,0,0,0-.35.78,1.33,1.33,0,0,0,.55,1.2c2,1.45,7.21,4.7,12.64,4.7l.85,0,.49-.05.06.06.18.19,2.51,3.07a3,3,0,0,1-1.74.56.76.76,0,0,0,0,1.52,4.55,4.55,0,0,0,2.93-1.06,4.32,4.32,0,0,0,2.17.6h.19a4.55,4.55,0,0,1-3.77,2,.76.76,0,0,0,0,1.52A6.08,6.08,0,0,0,25,18.37l.43,1.42.05.13a3,3,0,0,0,.54.72l-.3,1.26,0,.14a2.63,2.63,0,0,0,1,2.21,2.45,2.45,0,0,0,.62.36l-.52.6-.08.11a2.37,2.37,0,0,0-.16,2.13l0,.08A17.88,17.88,0,0,1,23,28.2,2.51,2.51,0,0,0,20.77,30a1.7,1.7,0,0,0,.59,1.91c.65.48,1.73.39,3.42.19a10.36,10.36,0,0,1,1.66-.13.28.28,0,0,1,.22.09.36.36,0,0,1-.06.31c-.11.21-.27.47-.45.77-1.07,1.81-2.69,4.54-2.11,6.46a1.68,1.68,0,0,0,1.56,1.19h.15A2.57,2.57,0,0,0,28,39.25c.79-1.77,3.06-4.46,5.47-7.3l.5-.59.41-.45.59-.63h0a2.34,2.34,0,0,0,1.35-.44,2.45,2.45,0,0,0,1-1.76v0l-.13-3.41h.14l.2,0a2.72,2.72,0,0,0,1.7-1.45,2.78,2.78,0,0,0,.07-2.27Zm-2.62-9,0,0A1.49,1.49,0,0,1,37.39,13,1.64,1.64,0,0,1,37,14.19l-7.89,5.19-.14.11a1.52,1.52,0,0,1-.34.26l-.09,0a1.4,1.4,0,0,1-.36.11h0a1.21,1.21,0,0,1-.42,0l0,0a1.15,1.15,0,0,1-.39-.17l0,0a1.38,1.38,0,0,1-.39-.43L26.19,17l.26-.13c3.76-1.81,5.61-5.69,6.41-8ZM4.56,7.06l.24-.12a13.72,13.72,0,0,0,4.27,1h.05a.76.76,0,0,0,.05-1.52A12.24,12.24,0,0,1,6.76,6l8.08-3.91c1.1-.31,4.1-.82,5.76.34a2.18,2.18,0,0,1,.36.32,2.38,2.38,0,0,1,.23.26,2.6,2.6,0,0,1,.19.29,3.2,3.2,0,0,1,.16.28,3.43,3.43,0,0,1,.15.43c0,.09.06.17.08.26a5.48,5.48,0,0,1,.12.82v.12a.15.15,0,0,0,0,0s0,0,0,0a4.72,4.72,0,0,1,0,.49c0,.07,0,.15,0,.23h0c0,.08,0,.16,0,.25v0c0,.09,0,.17,0,.27a.07.07,0,0,1,0,0c0,.09,0,.18,0,.27a.14.14,0,0,1,0,0c0,.09,0,.19,0,.28a.18.18,0,0,0,0,0c0,.1,0,.19-.06.29v.06l-.07.29,0,.06-.09.28,0,.07-.11.27,0,.09-.13.26-.06.1-.14.24a3.15,3.15,0,0,1-.19.26,5.38,5.38,0,0,1-4.09,1.81c-5,.34-10.07-2.7-12.25-4.21Zm17.78,8.82A4.56,4.56,0,0,0,23,13.57a.76.76,0,1,0-1.52,0,3,3,0,0,1-.3,1.3l-1.8-2.2a5.35,5.35,0,0,0,3-2.61h0l.2-.33,0-.08c.06-.11.12-.23.17-.34l0-.08c.06-.11.1-.23.15-.34l0-.07.12-.34,0-.07c0-.11.07-.23.1-.35l0-.06c0-.11.05-.23.07-.34V7.59c0-.11,0-.23.06-.34v0c0-.11,0-.22,0-.33a.2.2,0,0,0,0,0c0-.11,0-.22,0-.32v0c0-.1,0-.2,0-.3V5.9h0c0-.09,0-.17,0-.26h0c0-.32,0-.56-.06-.66s0,0,0-.05c0-.19,0-.37-.06-.55s0-.23-.07-.35l0-.2c0-.15-.08-.3-.13-.44l0-.07a4.1,4.1,0,0,0-.19-.45v0l7.92,1.25a1.57,1.57,0,0,1,1,.81,1.87,1.87,0,0,1,.11,1.57l0,.13a14.6,14.6,0,0,1-.64,2.15l-.08.2-.08.19-.17.4,0,.05a12,12,0,0,1-4.43,5.51h0c-.15.09-.31.17-.46.26,0-.09,0-.18,0-.27a.76.76,0,1,0-1.52,0,4.54,4.54,0,0,1-.09.9l-.32.09a2.74,2.74,0,0,1-1.74-.2Zm10.52,14.5-.5.59c-2.48,2.93-4.82,5.7-5.7,7.67a1,1,0,0,1-1,.61c-.17,0-.19-.07-.2-.11-.38-1.28,1.14-3.86,2-5.25.19-.32.35-.59.47-.82A1.82,1.82,0,0,0,28,31.29a1.73,1.73,0,0,0-1.45-.87h-.26a16.19,16.19,0,0,0-1.68.15,8.23,8.23,0,0,1-2.34.1s-.09-.06,0-.26a1,1,0,0,1,.86-.68,20.71,20.71,0,0,0,4.9-1l.07,0,5.22,1.24-.41.45Zm3-2.39a.93.93,0,0,1-.38.62.77.77,0,0,1-.61.14h0l-6.45-1.53-.11,0-.09,0a.67.67,0,0,1-.25-.3.82.82,0,0,1,0-.71l1.22-1.42,6.52-.06Zm2.07-5.5a1.21,1.21,0,0,1-.66.62H37l-5,.05-3.32,0h-.19l0,0a1,1,0,0,1-.85-.17,1.1,1.1,0,0,1-.39-.88l.19-.77.12,0,.09,0h.15l.23,0h.09l.37,0,.25-.06.22-.07.25-.1a2.77,2.77,0,0,0,.33-.18l.13-.09A2.74,2.74,0,0,0,30,20.6l5.61-3.69L38,21.48a1.24,1.24,0,0,1,0,1Zm0,0"/></g></g></g></svg>