<svg xmlns="http://www.w3.org/2000/svg" viewBox="0 0 35.35 34.4"><defs><style>.cls-1{fill:#00d185;stroke:#fff;stroke-miterlimit:10;stroke-width:0.35px;}</style></defs><title>seed</title><g id="Слой_2" data-name="Слой 2"><g id="_1280" data-name="1280"><g id="New_копия_" data-name="New (копия)"><path class="cls-1" d="M26.06,24.84a8.73,8.73,0,0,1,7.59,5.42A1.83,1.83,0,0,1,33.46,32a1.87,1.87,0,0,1-1.57.84H3.46A1.87,1.87,0,0,1,1.89,32a1.83,1.83,0,0,1-.18-1.73,8.73,8.73,0,0,1,7.59-5.42.7.7,0,0,0,.59-.39,8.7,8.7,0,0,1,15-1,10.07,10.07,0,0,0-2.13.38A.7.7,0,0,0,23,25.2l.19,0a8.71,8.71,0,0,1,2.43-.34ZM5.54,4.34V1.57H8.3A8.68,8.68,0,0,1,17,10.24V12l-7.6-7.6a.7.7,0,0,0-1,1L16,13H14.21A8.68,8.68,0,0,1,5.54,4.34ZM27,1.57h2.77V4.34A8.68,8.68,0,0,1,21.14,13H19.36L27,5.41a.7.7,0,0,0-1-1L18.37,12V10.24A8.68,8.68,0,0,1,27,1.57Zm7.89,28.16a10.13,10.13,0,0,0-8.4-6.26,10.09,10.09,0,0,0-8.16-5.23V14.41h2.77A10.08,10.08,0,0,0,31.21,4.34V.87a.7.7,0,0,0-.7-.7H27a10.09,10.09,0,0,0-9.37,6.39A10.09,10.09,0,0,0,8.3.17H4.84a.7.7,0,0,0-.7.7V4.34A10.08,10.08,0,0,0,14.21,14.41H17v3.84a10.09,10.09,0,0,0-8.16,5.23,10.13,10.13,0,0,0-8.4,6.26,3.24,3.24,0,0,0,.32,3,3.29,3.29,0,0,0,2.73,1.45H31.89a3.29,3.29,0,0,0,2.73-1.45,3.24,3.24,0,0,0,.32-3Z"/><path class="cls-1" d="M20.13,25l-.34.23a.7.7,0,1,0,.8,1.14l.29-.2A.7.7,0,0,0,20.13,25Z"/></g></g></g></svg>