<svg xmlns="http://www.w3.org/2000/svg" viewBox="0 0 39.52 40.11"><defs><style>.cls-1{fill:#00d185;stroke:#fff;stroke-miterlimit:10;stroke-width:0.3px;}</style></defs><title>tomato</title><g id="Слой_2" data-name="Слой 2"><g id="_1280" data-name="1280"><g id="New_копия_" data-name="New (копия)"><path class="cls-1" d="M31.61,7.69h0l0,0A1.22,1.22,0,0,0,31,6.54c-1.91-1.22-5.6-3-9.26-1.55V2.22A2,2,0,0,0,19.91.15H18.26a2,2,0,0,0-1.84,2.07v3a12.82,12.82,0,0,0-8.7,1.48A1.23,1.23,0,0,0,7.2,8.24a1.44,1.44,0,0,0,.09.16l-.23.05a1.28,1.28,0,0,0-.49.25A17.36,17.36,0,0,0,.15,22c0,9.9,8.8,18,19.61,18S39.37,31.9,39.37,22A17.36,17.36,0,0,0,31.61,7.69ZM16.42,6.77a1.21,1.21,0,0,0,1-.25,1.25,1.25,0,0,0,.46-1V2.22c0-.33.2-.58.36-.58h1.65c.17,0,.36.25.36.58V5.37A1.24,1.24,0,0,0,22,6.49c2.71-1.24,5.58-.18,7.41.83a17,17,0,0,0-4.22.38,1.22,1.22,0,0,0-.92,1A1.26,1.26,0,0,0,24.9,10a6.79,6.79,0,0,1,2.26,2,5.08,5.08,0,0,1,.68,1.46,9.56,9.56,0,0,0-4.7-2c-.42-.06-.77-.08-1-.09a1.23,1.23,0,0,0-.91.36,1.25,1.25,0,0,0-.37.91,13.21,13.21,0,0,1-2,7.52c-.73-1.55-1-4.88-.92-7.62a1.25,1.25,0,0,0-1.09-1.25,4.46,4.46,0,0,0-.58,0h-.11l-.3,0-.46.05-.3.06-.47.12-.29.09-.49.18-.27.11-.49.23-.25.13-.49.28-.23.13-.52.33-.17.11-.66.46a11,11,0,0,1,.84-1.3l0-.06a10.41,10.41,0,0,1,.91-1.05h0a9.55,9.55,0,0,1,1.1-1l.14-.11.08-.05.26-.18a1.24,1.24,0,0,0,.55-1.17,1.23,1.23,0,0,0-.78-1l-.12,0-.52-.16-.35-.08h-.08a10.9,10.9,0,0,0-3,0,11.66,11.66,0,0,1,6.62-.58Zm3.34,31.71c-10,0-18.13-7.39-18.13-16.48A15.87,15.87,0,0,1,7.49,9.88a44.07,44.07,0,0,1,5.07-1l.18,0,.14,0-.21.16-.23.18-.22.18-.27.23-.27.26-.25.24-.45.49-.08.08a12.67,12.67,0,0,0-2,3.2,1.21,1.21,0,0,0,.38,1.47,1.25,1.25,0,0,0,1.55,0c1.27-1,3.64-2.75,5.58-2.62,0,2.09.09,6.61,1.33,8.54a1.25,1.25,0,0,0,1,.57h0a1.24,1.24,0,0,0,1-.51,14.44,14.44,0,0,0,2.52-8.48,8,8,0,0,1,5,2.15A1.24,1.24,0,0,0,29.45,14a6.71,6.71,0,0,0-.24-1.1v-.05a6.57,6.57,0,0,0-.49-1.11,1.61,1.61,0,0,0-.08-.16c-.09-.16-.21-.32-.32-.49l-.11-.17c-.1-.13-.21-.26-.33-.39s-.14-.18-.22-.27l-.32-.3c-.12-.11-.22-.22-.36-.33l-.37-.28c-.15-.11-.28-.22-.45-.33a13.83,13.83,0,0,1,1.39-.16h.07l.35,0H29.7l.26,0,.66.08.18,0A15.89,15.89,0,0,1,37.89,22c0,9.09-8.13,16.48-18.13,16.48Zm0,0"/><path class="cls-1" d="M4.64,22.92a.74.74,0,1,0-1.47.22,8.43,8.43,0,0,0,1.08,3.07.74.74,0,1,0,1.27-.76,6.93,6.93,0,0,1-.89-2.53Zm0,0"/><path class="cls-1" d="M3.95,20.67H4A.75.75,0,0,0,4.74,20a8.87,8.87,0,0,1,.51-2.44A.74.74,0,1,0,3.86,17a10.39,10.39,0,0,0-.6,2.84.74.74,0,0,0,.69.79Zm0,0"/></g></g></g></svg>