<svg xmlns="http://www.w3.org/2000/svg" viewBox="0 0 47.59 39.73"><defs><style>.cls-1{fill:#00d185;stroke:#fff;stroke-miterlimit:10;stroke-width:0.45px;}</style></defs><title>tractor</title><g id="Слой_2" data-name="Слой 2"><g id="_1280" data-name="1280"><g id="New_копия_" data-name="New (копия)"><path class="cls-1" d="M35.58,30.67a2.95,2.95,0,1,1,2.95-2.95,2.95,2.95,0,0,1-2.95,2.95Zm0-7.86a4.91,4.91,0,1,0,4.91,4.91,4.91,4.91,0,0,0-4.91-4.91Z"/><path class="cls-1" d="M44.54,31.76a1,1,0,0,0-1,1.7,10,10,0,0,1-1,1.21,9.85,9.85,0,0,1-1.21,1,1,1,0,0,0-1.69,1,9.73,9.73,0,0,1-3.06.82,1,1,0,0,0-2,0,9.74,9.74,0,0,1-3.06-.82,1,1,0,0,0-1.69-1,10,10,0,0,1-1.21-1,10.08,10.08,0,0,1-1-1.21,1,1,0,0,0-1-1.7,9.78,9.78,0,0,1-.82-3.06,1,1,0,0,0,0-2,9.78,9.78,0,0,1,.82-3.06,1,1,0,0,0,1-1.7,10,10,0,0,1,1-1.21,10.1,10.1,0,0,1,1.21-1,1,1,0,0,0,1.7-1A9.73,9.73,0,0,1,34.6,18a1,1,0,0,0,2,0,9.74,9.74,0,0,1,3.06.82,1,1,0,0,0,1.69,1A10,10,0,0,1,43.55,22a1,1,0,0,0,1,1.7,9.78,9.78,0,0,1,.82,3.06,1,1,0,0,0,0,2,9.77,9.77,0,0,1-.82,3.06Zm-7-15.66a11.91,11.91,0,0,0-1.95-.16,11.73,11.73,0,0,0-6.52,2H23.49L27.15,6.12h9.12l1.25,10ZM24,29.69H17.85a8.84,8.84,0,0,0-15.64-4.6l0-3.62c.93-1.2,3.44-2.23,7-2.85a52.71,52.71,0,0,1,8.31-.67h.38l1.48,0,.44-1.41L24.26,2.19H39.74l1.94,15.45a11.7,11.7,0,0,0-2.11-1L38,4.15H25.71L20.83,19.87h6a11.74,11.74,0,0,0-3,7.86,11.86,11.86,0,0,0,.16,2Zm-8.09,2a6.81,6.81,0,0,1-1.31,3.13,1,1,0,0,0-1.39,1.38A6.8,6.8,0,0,1,10,37.48a1,1,0,0,0-2,0A6.8,6.8,0,0,1,5,36.18,1,1,0,0,0,3.57,34.8a6.81,6.81,0,0,1-1.31-3.13,1,1,0,0,0,0-2,6.8,6.8,0,0,1,1.29-3.15,1,1,0,0,0,1.38-1.39,6.79,6.79,0,0,1,3.15-1.31,1,1,0,0,0,2,0,6.79,6.79,0,0,1,3.15,1.31,1,1,0,0,0,1.38,1.39,6.79,6.79,0,0,1,1.29,3.15,1,1,0,0,0,0,2ZM10,8.08h2V12H10V8.08ZM43.88,19.35,41.72,2.19h.73a1,1,0,1,0,0-2H20.85a1,1,0,0,0,0,2H22.2L17.92,16h-.41c-.87,0-3,0-5.5.28V14h2V6.12H12v-2h0A3,3,0,0,0,9.05,1.21a1,1,0,1,0,0,2,1,1,0,0,1,1,1h0v2h-2V14h2v2.5C6,17.08,1.56,18.31.22,20.91v9.76a8.84,8.84,0,0,0,17.62,1h6.62a11.79,11.79,0,1,0,19.41-12.3Z"/><path class="cls-1" d="M9.06,31.65a1,1,0,1,1,1-1,1,1,0,0,1-1,1Zm0-3.93A2.95,2.95,0,1,0,12,30.67a2.95,2.95,0,0,0-2.95-2.95Z"/></g></g></g></svg>