<svg xmlns="http://www.w3.org/2000/svg" viewBox="0 0 13.69 12.69"><defs><style>.cls-1{fill:#1d1d1b;stroke:#ededed;stroke-miterlimit:10;stroke-width:0.2px;}</style></defs><title>user</title><g id="Слой_2" data-name="Слой 2"><g id="_1280" data-name="1280"><g id="New_копия_" data-name="New (копия)"><path class="cls-1" d="M13.59,3.48a.53.53,0,0,1-.53.53h-.47v.47a.53.53,0,0,1-1.05,0V4h-.47a.53.53,0,1,1,0-1.05h.47V2.48a.53.53,0,0,1,1.05,0V3h.47a.53.53,0,0,1,.53.53Zm-12.41,8a5.19,5.19,0,0,1,10.33,0ZM4,3.48A2.33,2.33,0,1,1,6.34,5.82,2.33,2.33,0,0,1,4,3.48Zm4.4,2.68a3.38,3.38,0,1,0-4.13,0A6.24,6.24,0,0,0,.1,12.06a.53.53,0,0,0,.53.53H12.06a.53.53,0,0,0,.53-.53A6.24,6.24,0,0,0,8.41,6.16Z"/></g></g></g></svg>