<svg xmlns="http://www.w3.org/2000/svg" viewBox="0 0 28.88 28.88"><defs><style>.cls-1{fill:none;stroke:#1d1d1b;stroke-miterlimit:10;stroke-width:0.88px;}.cls-2{fill:#1d1d1b;}</style></defs><title>vk</title><g id="Слой_2" data-name="Слой 2"><g id="_1280" data-name="1280"><g id="New_копия_" data-name="New (копия)"><g id="_Группа_" data-name="&lt;Группа&gt;"><circle id="_Контур_" data-name="&lt;Контур&gt;" class="cls-1" cx="14.44" cy="14.44" r="14"/><g id="_Группа_2" data-name="&lt;Группа&gt;"><path id="_Составной_контур_" data-name="&lt;Составной контур&gt;" class="cls-2" d="M10.23,11.84a10.34,10.34,0,0,0,1.48,2.6,1.39,1.39,0,0,0,.3.27.23.23,0,0,0,.38-.11,3.25,3.25,0,0,0,.14-.79c0-.53,0-.88,0-1.42a.69.69,0,0,0-.64-.73c-.15,0-.17-.16-.07-.28a1,1,0,0,1,.81-.32c.51,0,1,0,1.53,0a3,3,0,0,1,.62.06.57.57,0,0,1,.45.5,2.14,2.14,0,0,1,0,.41c0,.58,0,1.16,0,1.75a3.05,3.05,0,0,0,.06.69c.07.31.28.39.5.16a7.58,7.58,0,0,0,.74-.93,9.27,9.27,0,0,0,1-1.91c.14-.35.24-.42.61-.42h2.09a1.26,1.26,0,0,1,.37,0,.32.32,0,0,1,.22.41A3.47,3.47,0,0,1,20.14,13c-.43.6-.88,1.19-1.31,1.79a2.28,2.28,0,0,0-.15.24.49.49,0,0,0,.09.71c.38.39.79.76,1.15,1.16a6.86,6.86,0,0,1,.73.94.53.53,0,0,1-.4.89c-.31,0-1.85,0-1.93,0a1.51,1.51,0,0,1-1.07-.43c-.32-.31-.62-.66-.93-1a2.59,2.59,0,0,0-.3-.27c-.25-.19-.51-.15-.62.15a5.76,5.76,0,0,0-.19,1,.53.53,0,0,1-.55.51,5.18,5.18,0,0,1-2.8-.53A5.92,5.92,0,0,1,10,16.6a19.63,19.63,0,0,1-2.06-3.38c0-.06-.63-1.33-.65-1.4a.36.36,0,0,1,.17-.46c.11,0,2.08,0,2.11,0a.69.69,0,0,1,.66.48Zm0,0"/></g></g></g></g></g></svg>